<svg xmlns="http://www.w3.org/2000/svg" height="768" width="1024"><g style="font-style:normal;font-weight:400;font-size:32px;line-height:1;font-family:Lato;font-variant-ligatures:none;text-align:center;text-anchor:middle" fill="#420077"><path style="font-style:normal;font-weight:400;font-size:32px;line-height:1;font-family:Lato;font-variant-ligatures:none;text-align:center;text-anchor:middle" d="M245.071-7.296q-1.968.064-3.36.32-1.376.24-2.256.64-.864.4-1.264.944-.384.544-.384 1.216 0 .64.208 1.104.208.464.56.768.368.288.848.432.496.128 1.056.128.752 0 1.376-.144.624-.16 1.168-.448.56-.288 1.056-.688.512-.4.992-.912zm-9.2-6.624q1.344-1.296 2.896-1.936 1.552-.64 3.44-.64 1.36 0 2.416.448 1.056.448 1.776 1.248t1.088 1.936q.368 1.136.368 2.496V0h-1.264q-.416 0-.64-.128-.224-.144-.352-.544l-.32-1.536q-.64.592-1.248 1.056-.608.448-1.28.768-.672.304-1.44.464-.752.176-1.68.176-.944 0-1.776-.256-.832-.272-1.456-.8-.608-.528-.976-1.328-.352-.816-.352-1.92 0-.96.528-1.84.528-.896 1.712-1.584 1.184-.688 3.088-1.12 1.904-.448 4.672-.512v-1.264q0-1.888-.816-2.848-.816-.976-2.384-.976-1.056 0-1.776.272-.704.256-1.232.592-.512.32-.896.592-.368.256-.736.256-.288 0-.496-.144-.208-.16-.352-.384z" transform="matrix(.75 0 0 .75 115.366 450.217)"/><path style="font-style:normal;font-weight:400;font-size:32px;line-height:1;font-family:Lato;font-variant-ligatures:none;text-align:center;text-anchor:middle" d="M269.79-13.536q-.192.352-.592.352-.24 0-.544-.176-.304-.176-.752-.384-.432-.224-1.04-.4-.608-.192-1.44-.192-.72 0-1.296.192-.576.176-.992.496-.4.32-.624.752-.208.416-.208.912 0 .624.352 1.04.368.416.96.72t1.344.544q.752.224 1.536.496.8.256 1.552.576.752.32 1.344.8.592.48.944 1.184.368.688.368 1.664 0 1.12-.4 2.08-.4.944-1.184 1.648-.784.688-1.92 1.088-1.136.4-2.624.4-1.696 0-3.072-.544-1.376-.56-2.336-1.424l.672-1.088q.128-.208.304-.32.176-.112.448-.112.288 0 .608.224t.768.496q.464.272 1.12.496.656.224 1.632.224.832 0 1.456-.208.624-.224 1.04-.592.416-.368.608-.848.208-.48.208-1.024 0-.672-.368-1.104-.352-.448-.944-.752-.592-.32-1.36-.544l-1.552-.496q-.784-.256-1.552-.576-.752-.336-1.344-.832-.592-.496-.96-1.216-.352-.736-.352-1.776 0-.928.384-1.776.384-.864 1.12-1.504.736-.656 1.808-1.04t2.448-.384q1.6 0 2.864.512 1.28.496 2.208 1.376z" transform="matrix(.75 0 0 .75 116.116 450.217)"/><path style="font-style:normal;font-weight:400;font-size:32px;line-height:1;font-family:Lato;font-variant-ligatures:none;text-align:center;text-anchor:middle" d="M277.233-16.208V0h-2.848v-16.208zm.608-5.088q0 .416-.176.784-.16.352-.448.64-.272.272-.656.432-.368.16-.784.16-.416 0-.784-.16-.352-.16-.624-.432-.272-.288-.432-.64-.16-.368-.16-.784 0-.416.16-.784.16-.384.432-.656.272-.288.624-.448.368-.16.784-.16.416 0 .784.16.384.16.656.448.288.272.448.656.176.368.176.784z" transform="matrix(.75 0 0 .75 116.866 450.217)"/><path style="font-style:normal;font-weight:400;font-size:32px;line-height:1;font-family:Lato;font-variant-ligatures:none;text-align:center;text-anchor:middle" d="M281.912 0v-16.208h1.712q.608 0 .752.592l.208 1.664q.896-1.104 2.016-1.808t2.592-.704q1.632 0 2.64.912 1.024.912 1.472 2.464.352-.88.896-1.52.56-.64 1.248-1.056.688-.416 1.456-.608.784-.192 1.584-.192 1.28 0 2.272.416 1.008.4 1.696 1.184.704.784 1.072 1.936.368 1.136.368 2.608V0h-2.864v-10.32q0-1.904-.832-2.88-.832-.992-2.4-.992-.704 0-1.344.256-.624.24-1.104.72-.48.48-.768 1.216-.272.72-.272 1.68V0h-2.864v-10.32q0-1.952-.784-2.912t-2.288-.96q-1.056 0-1.952.576-.896.56-1.648 1.536V0z" transform="matrix(.75 0 0 .75 117.616 450.217)"/><path style="font-style:normal;font-weight:400;font-size:32px;line-height:1;font-family:Lato;font-variant-ligatures:none;text-align:center;text-anchor:middle" d="M311.089-3.904q.784 1.056 1.712 1.488.928.432 2.08.432 2.272 0 3.488-1.616 1.216-1.616 1.216-4.608 0-1.584-.288-2.72-.272-1.136-.8-1.856-.528-.736-1.296-1.072-.768-.336-1.744-.336-1.392 0-2.448.64-1.04.64-1.92 1.808zm-.144-9.792q1.024-1.264 2.368-2.032 1.344-.768 3.072-.768 1.408 0 2.544.544 1.136.528 1.936 1.584.8 1.04 1.232 2.592.432 1.552.432 3.568 0 1.792-.48 3.344-.48 1.536-1.392 2.672-.896 1.12-2.208 1.776-1.296.64-2.928.64-1.488 0-2.56-.496-1.056-.512-1.872-1.408v7.168h-2.864v-21.696h1.712q.608 0 .752.592z" transform="matrix(.75 0 0 .75 118.366 450.217)"/><path style="font-style:normal;font-weight:400;font-size:32px;line-height:1;font-family:Lato;font-variant-ligatures:none;text-align:center;text-anchor:middle" d="M329.106-23.568V0h-2.848v-23.568z" transform="matrix(.75 0 0 .75 119.116 450.217)"/><path style="font-style:normal;font-weight:400;font-size:32px;line-height:1;font-family:Lato;font-variant-ligatures:none;text-align:center;text-anchor:middle" d="M344.573-9.872q0-.992-.288-1.808-.272-.832-.816-1.424-.528-.608-1.296-.928-.768-.336-1.744-.336-2.048 0-3.248 1.2-1.184 1.184-1.472 3.296zm2.304 7.6q-.528.64-1.264 1.12-.736.464-1.584.768-.832.304-1.728.448-.896.16-1.776.16-1.68 0-3.104-.56-1.408-.576-2.448-1.664-1.024-1.104-1.6-2.72-.576-1.616-.576-3.712 0-1.696.512-3.168.528-1.472 1.504-2.544.976-1.088 2.384-1.696 1.408-.624 3.168-.624 1.456 0 2.688.496 1.248.48 2.144 1.408.912.912 1.424 2.272.512 1.344.512 3.072 0 .672-.144.896-.144.224-.544.224h-10.832q.048 1.536.416 2.672.384 1.136 1.056 1.904.672.752 1.6 1.136.928.368 2.08.368 1.072 0 1.84-.24.784-.256 1.344-.544.56-.288.928-.528.384-.256.656-.256.352 0 .544.272z" transform="matrix(.75 0 0 .75 119.866 450.217)"/><path style="font-style:normal;font-weight:400;font-size:32px;line-height:1;font-family:Lato;font-variant-ligatures:none;text-align:center;text-anchor:middle" d="M368.227-13.536q-.192.352-.592.352-.24 0-.544-.176-.304-.176-.752-.384-.432-.224-1.04-.4-.608-.192-1.44-.192-.72 0-1.296.192-.576.176-.992.496-.4.32-.624.752-.208.416-.208.912 0 .624.352 1.04.368.416.96.72t1.344.544q.752.224 1.536.496.8.256 1.552.576.752.32 1.344.8.592.48.944 1.184.368.688.368 1.664 0 1.12-.4 2.08-.4.944-1.184 1.648-.784.688-1.92 1.088-1.136.4-2.624.4-1.696 0-3.072-.544-1.376-.56-2.336-1.424l.672-1.088q.128-.208.304-.32.176-.112.448-.112.288 0 .608.224t.768.496q.464.272 1.12.496.656.224 1.632.224.832 0 1.456-.208.624-.224 1.04-.592.416-.368.608-.848.208-.48.208-1.024 0-.672-.368-1.104-.352-.448-.944-.752-.592-.32-1.36-.544l-1.552-.496q-.784-.256-1.552-.576-.752-.336-1.344-.832-.592-.496-.96-1.216-.352-.736-.352-1.776 0-.928.384-1.776.384-.864 1.12-1.504.736-.656 1.808-1.04t2.448-.384q1.6 0 2.864.512 1.28.496 2.208 1.376z" transform="matrix(.75 0 0 .75 120.616 450.217)"/><path style="font-style:normal;font-weight:400;font-size:32px;line-height:1;font-family:Lato;font-variant-ligatures:none;text-align:center;text-anchor:middle" d="M382.102-13.536q-.192.352-.592.352-.24 0-.544-.176-.304-.176-.752-.384-.432-.224-1.04-.4-.608-.192-1.44-.192-.72 0-1.296.192-.576.176-.992.496-.4.32-.624.752-.208.416-.208.912 0 .624.352 1.04.368.416.96.72t1.344.544q.752.224 1.536.496.8.256 1.552.576.752.32 1.344.8.592.48.944 1.184.368.688.368 1.664 0 1.12-.4 2.08-.4.944-1.184 1.648-.784.688-1.92 1.088-1.136.4-2.624.4-1.696 0-3.072-.544-1.376-.56-2.336-1.424l.672-1.088q.128-.208.304-.32.176-.112.448-.112.288 0 .608.224t.768.496q.464.272 1.12.496.656.224 1.632.224.832 0 1.456-.208.624-.224 1.04-.592.416-.368.608-.848.208-.48.208-1.024 0-.672-.368-1.104-.352-.448-.944-.752-.592-.32-1.36-.544l-1.552-.496q-.784-.256-1.552-.576-.752-.336-1.344-.832-.592-.496-.96-1.216-.352-.736-.352-1.776 0-.928.384-1.776.384-.864 1.12-1.504.736-.656 1.808-1.04t2.448-.384q1.6 0 2.864.512 1.28.496 2.208 1.376z" transform="matrix(.75 0 0 .75 121.366 450.217)"/><path style="font-style:normal;font-weight:400;font-size:32px;line-height:1;font-family:Lato;font-variant-ligatures:none;text-align:center;text-anchor:middle" d="M389.481-23.568V0h-2.848v-23.568z" transform="matrix(.75 0 0 .75 122.116 450.217)"/><path style="font-style:normal;font-weight:400;font-size:32px;line-height:1;font-family:Lato;font-variant-ligatures:none;text-align:center;text-anchor:middle" d="M405.151-3.904q.784 1.056 1.712 1.488.928.432 2.08.432 2.272 0 3.488-1.616 1.216-1.616 1.216-4.608 0-1.584-.288-2.72-.272-1.136-.8-1.856-.528-.736-1.296-1.072-.768-.336-1.744-.336-1.392 0-2.448.64-1.04.64-1.92 1.808zm-.144-9.792q1.024-1.264 2.368-2.032 1.344-.768 3.072-.768 1.408 0 2.544.544 1.136.528 1.936 1.584.8 1.04 1.232 2.592.432 1.552.432 3.568 0 1.792-.48 3.344-.48 1.536-1.392 2.672-.896 1.12-2.208 1.776-1.296.64-2.928.64-1.488 0-2.56-.496-1.056-.512-1.872-1.408v7.168h-2.864v-21.696H404q.608 0 .752.592z" transform="matrix(.75 0 0 .75 122.866 450.217)"/><path style="font-style:normal;font-weight:400;font-size:32px;line-height:1;font-family:Lato;font-variant-ligatures:none;text-align:center;text-anchor:middle" d="M422.929-12.96q.768-1.664 1.888-2.592 1.12-.944 2.736-.944.512 0 .976.112.48.112.848.352l-.208 2.128q-.096.4-.48.4-.224 0-.656-.096-.432-.096-.976-.096-.768 0-1.376.224-.592.224-1.072.672-.464.432-.848 1.088-.368.64-.672 1.472V0h-2.864v-16.208h1.632q.464 0 .64.176t.24.608z" transform="matrix(.75 0 0 .75 123.616 450.217)"/><path style="font-style:normal;font-weight:400;font-size:32px;line-height:1;font-family:Lato;font-variant-ligatures:none;text-align:center;text-anchor:middle" d="M438.057-16.464q1.776 0 3.2.592 1.424.592 2.432 1.68t1.536 2.64q.544 1.536.544 3.44 0 1.92-.544 3.456-.528 1.536-1.536 2.624t-2.432 1.68q-1.424.576-3.2.576-1.792 0-3.232-.576-1.424-.592-2.432-1.68t-1.552-2.624q-.528-1.536-.528-3.456 0-1.904.528-3.44.544-1.552 1.552-2.64t2.432-1.68q1.44-.592 3.232-.592zm0 14.464q2.4 0 3.584-1.6 1.184-1.616 1.184-4.496 0-2.896-1.184-4.512-1.184-1.616-3.584-1.616-1.216 0-2.128.416-.896.416-1.504 1.2-.592.784-.896 1.936-.288 1.136-.288 2.576 0 2.88 1.184 4.496 1.2 1.6 3.632 1.6z" transform="matrix(.75 0 0 .75 124.366 450.217)"/><path style="font-style:normal;font-weight:400;font-size:32px;line-height:1;font-family:Lato;font-variant-ligatures:none;text-align:center;text-anchor:middle" d="M461.912 0h-2.736q-.352 0-.56-.176-.192-.192-.32-.416l-4.08-6.352q-.064.224-.144.448-.064.208-.192.384l-3.776 5.52q-.16.224-.352.416-.176.176-.496.176h-2.544l5.68-8.32-5.456-7.888h2.736q.352 0 .512.112.16.112.288.32l3.984 6.08q.128-.464.4-.896l3.488-5.12q.144-.224.304-.352.176-.144.416-.144h2.624l-5.456 7.744z" transform="matrix(.75 0 0 .75 125.116 450.217)"/><path style="font-style:normal;font-weight:400;font-size:32px;line-height:1;font-family:Lato;font-variant-ligatures:none;text-align:center;text-anchor:middle" d="m478.521-16.208-9.04 20.992q-.144.32-.368.512-.208.192-.656.192h-2.112l2.96-6.432-6.688-15.264h2.464q.368 0 .576.192.224.176.304.4l4.336 10.208q.256.672.432 1.408.224-.752.48-1.424l4.208-10.192q.096-.256.32-.416.24-.176.528-.176z" transform="matrix(.75 0 0 .75 125.866 450.217)"/><path style="font-style:normal;font-weight:400;font-size:32px;line-height:1;font-family:Lato;font-variant-ligatures:none;text-align:center;text-anchor:middle" d="M489.468 0v-13.776l-1.792-.208q-.336-.08-.56-.24-.208-.176-.208-.496v-1.168h2.56v-1.568q0-1.392.384-2.464.4-1.088 1.12-1.824.736-.752 1.76-1.136 1.024-.384 2.304-.384 1.088 0 2 .32l-.064 1.424q-.032.384-.432.416-.384.032-1.04.032-.736 0-1.344.192-.592.192-1.024.624-.432.432-.672 1.136-.224.704-.224 1.744v1.488h4.672v2.064h-4.576V0z" transform="matrix(.75 0 0 .75 126.616 450.217)"/><path style="font-style:normal;font-weight:400;font-size:32px;line-height:1;font-family:Lato;font-variant-ligatures:none;text-align:center;text-anchor:middle" d="M505.932-16.464q1.776 0 3.2.592 1.424.592 2.432 1.68t1.536 2.64q.544 1.536.544 3.44 0 1.92-.544 3.456-.528 1.536-1.536 2.624t-2.432 1.68q-1.424.576-3.2.576-1.792 0-3.232-.576-1.424-.592-2.432-1.68t-1.552-2.624q-.528-1.536-.528-3.456 0-1.904.528-3.44.544-1.552 1.552-2.64t2.432-1.68q1.44-.592 3.232-.592zm0 14.464q2.4 0 3.584-1.6 1.184-1.616 1.184-4.496 0-2.896-1.184-4.512-1.184-1.616-3.584-1.616-1.216 0-2.128.416-.896.416-1.504 1.2-.592.784-.896 1.936-.288 1.136-.288 2.576 0 2.88 1.184 4.496 1.2 1.6 3.632 1.6z" transform="matrix(.75 0 0 .75 127.366 450.217)"/><path style="font-style:normal;font-weight:400;font-size:32px;line-height:1;font-family:Lato;font-variant-ligatures:none;text-align:center;text-anchor:middle" d="M519.929-12.96q.768-1.664 1.888-2.592 1.12-.944 2.736-.944.512 0 .976.112.48.112.848.352l-.208 2.128q-.096.4-.48.4-.224 0-.656-.096-.432-.096-.976-.096-.768 0-1.376.224-.592.224-1.072.672-.464.432-.848 1.088-.368.64-.672 1.472V0h-2.864v-16.208h1.632q.464 0 .64.176t.24.608z" transform="matrix(.75 0 0 .75 128.116 450.217)"/><path style="font-style:normal;font-weight:400;font-size:32px;line-height:1;font-family:Lato;font-variant-ligatures:none;text-align:center;text-anchor:middle" d="M539.294-23.568V0h-2.848v-23.568z" transform="matrix(.75 0 0 .75 128.866 450.217)"/><path style="font-style:normal;font-weight:400;font-size:32px;line-height:1;font-family:Lato;font-variant-ligatures:none;text-align:center;text-anchor:middle" d="M550.744-16.464q1.776 0 3.2.592 1.424.592 2.432 1.68t1.536 2.64q.544 1.536.544 3.44 0 1.92-.544 3.456-.528 1.536-1.536 2.624t-2.432 1.68q-1.424.576-3.2.576-1.792 0-3.232-.576-1.424-.592-2.432-1.68t-1.552-2.624Q543-6.192 543-8.112q0-1.904.528-3.44.544-1.552 1.552-2.64t2.432-1.68q1.44-.592 3.232-.592zm0 14.464q2.4 0 3.584-1.6 1.184-1.616 1.184-4.496 0-2.896-1.184-4.512-1.184-1.616-3.584-1.616-1.216 0-2.128.416-.896.416-1.504 1.2-.592.784-.896 1.936-.288 1.136-.288 2.576 0 2.88 1.184 4.496 1.2 1.6 3.632 1.6z" transform="matrix(.75 0 0 .75 129.616 450.217)"/><path style="font-style:normal;font-weight:400;font-size:32px;line-height:1;font-family:Lato;font-variant-ligatures:none;text-align:center;text-anchor:middle" d="M573.317-13.328q-.128.176-.256.272-.128.096-.352.096-.24 0-.528-.192-.288-.208-.72-.448-.416-.24-1.04-.432-.608-.208-1.504-.208-1.2 0-2.112.432-.912.416-1.536 1.216-.608.8-.928 1.936-.304 1.136-.304 2.544 0 1.472.336 2.624.336 1.136.944 1.92.624.768 1.488 1.184.88.4 1.968.4 1.04 0 1.712-.24.672-.256 1.104-.56.448-.304.736-.544.304-.256.592-.256.352 0 .544.272l.8 1.04q-.528.656-1.2 1.12-.672.464-1.456.784-.768.304-1.616.448-.848.144-1.728.144-1.52 0-2.832-.56-1.296-.56-2.256-1.616-.96-1.072-1.504-2.624t-.544-3.536q0-1.808.496-3.344.512-1.536 1.472-2.64.976-1.12 2.384-1.744 1.424-.624 3.264-.624 1.712 0 3.008.56 1.312.544 2.32 1.552z" transform="matrix(.75 0 0 .75 130.366 450.217)"/><path style="font-style:normal;font-weight:400;font-size:32px;line-height:1;font-family:Lato;font-variant-ligatures:none;text-align:center;text-anchor:middle" d="M586.071-7.296q-1.968.064-3.36.32-1.376.24-2.256.64-.864.4-1.264.944-.384.544-.384 1.216 0 .64.208 1.104.208.464.56.768.368.288.848.432.496.128 1.056.128.752 0 1.376-.144.624-.16 1.168-.448.56-.288 1.056-.688.512-.4.992-.912zm-9.2-6.624q1.344-1.296 2.896-1.936 1.552-.64 3.44-.64 1.36 0 2.416.448 1.056.448 1.776 1.248t1.088 1.936q.368 1.136.368 2.496V0h-1.264q-.416 0-.64-.128-.224-.144-.352-.544l-.32-1.536q-.64.592-1.248 1.056-.608.448-1.28.768-.672.304-1.44.464-.752.176-1.68.176-.944 0-1.776-.256-.832-.272-1.456-.8-.608-.528-.976-1.328-.352-.816-.352-1.92 0-.96.528-1.84.528-.896 1.712-1.584 1.184-.688 3.088-1.12 1.904-.448 4.672-.512v-1.264q0-1.888-.816-2.848-.816-.976-2.384-.976-1.056 0-1.776.272-.704.256-1.232.592-.512.32-.896.592-.368.256-.736.256-.288 0-.496-.144-.208-.16-.352-.384z" transform="matrix(.75 0 0 .75 131.116 450.217)"/><path style="font-style:normal;font-weight:400;font-size:32px;line-height:1;font-family:Lato;font-variant-ligatures:none;text-align:center;text-anchor:middle" d="M596.106-23.568V0h-2.848v-23.568z" transform="matrix(.75 0 0 .75 131.865 450.217)"/><path style="font-style:normal;font-weight:400;font-size:32px;line-height:1;font-family:Lato;font-variant-ligatures:none;text-align:center;text-anchor:middle" d="M619.472-12.352q-.8-1.072-1.728-1.488-.928-.432-2.08-.432-2.256 0-3.472 1.616-1.216 1.616-1.216 4.608 0 1.584.272 2.72.272 1.12.8 1.856.528.72 1.296 1.056.768.336 1.744.336 1.408 0 2.448-.64 1.056-.64 1.936-1.808zm2.848-11.216V0h-1.696q-.608 0-.768-.592L619.6-2.56q-1.04 1.248-2.368 2.016-1.328.768-3.072.768-1.392 0-2.528-.528-1.136-.544-1.936-1.584t-1.232-2.592q-.432-1.552-.432-3.568 0-1.792.48-3.328.48-1.552 1.376-2.688.896-1.136 2.192-1.776 1.312-.656 2.944-.656 1.488 0 2.544.512 1.072.496 1.904 1.392v-8.976z" transform="matrix(.75 0 0 .75 132.616 450.217)"/><path style="font-style:normal;font-weight:400;font-size:32px;line-height:1;font-family:Lato;font-variant-ligatures:none;text-align:center;text-anchor:middle" d="M637.698-9.872q0-.992-.288-1.808-.272-.832-.816-1.424-.528-.608-1.296-.928-.768-.336-1.744-.336-2.048 0-3.248 1.2-1.184 1.184-1.472 3.296zm2.304 7.6q-.528.64-1.264 1.12-.736.464-1.584.768-.832.304-1.728.448-.896.16-1.776.16-1.68 0-3.104-.56-1.408-.576-2.448-1.664-1.024-1.104-1.6-2.72-.576-1.616-.576-3.712 0-1.696.512-3.168.528-1.472 1.504-2.544.976-1.088 2.384-1.696 1.408-.624 3.168-.624 1.456 0 2.688.496 1.248.48 2.144 1.408.912.912 1.424 2.272.512 1.344.512 3.072 0 .672-.144.896-.144.224-.544.224h-10.832q.048 1.536.416 2.672.384 1.136 1.056 1.904.672.752 1.6 1.136.928.368 2.08.368 1.072 0 1.84-.24.784-.256 1.344-.544.56-.288.928-.528.384-.256.656-.256.352 0 .544.272z" transform="matrix(.75 0 0 .75 133.365 450.217)"/><path style="font-style:normal;font-weight:400;font-size:32px;line-height:1;font-family:Lato;font-variant-ligatures:none;text-align:center;text-anchor:middle" d="M657.238-16.208 650.63 0h-2.56l-6.608-16.208h2.32q.352 0 .576.176.224.176.304.416l4.112 10.432q.192.592.336 1.152.144.56.272 1.12.128-.56.272-1.12.144-.56.352-1.152l4.16-10.432q.096-.256.32-.416.224-.176.528-.176z" transform="matrix(.75 0 0 .75 134.115 450.217)"/><path style="font-style:normal;font-weight:400;font-size:32px;line-height:1;font-family:Lato;font-variant-ligatures:none;text-align:center;text-anchor:middle" d="M670.26-9.872q0-.992-.288-1.808-.272-.832-.816-1.424-.528-.608-1.296-.928-.768-.336-1.744-.336-2.048 0-3.248 1.2-1.184 1.184-1.472 3.296zm2.304 7.6q-.528.64-1.264 1.12-.736.464-1.584.768-.832.304-1.728.448-.896.16-1.776.16-1.68 0-3.104-.56Q661.7-.912 660.66-2q-1.024-1.104-1.6-2.72-.576-1.616-.576-3.712 0-1.696.512-3.168.528-1.472 1.504-2.544.976-1.088 2.384-1.696 1.408-.624 3.168-.624 1.456 0 2.688.496 1.248.48 2.144 1.408.912.912 1.424 2.272.512 1.344.512 3.072 0 .672-.144.896-.144.224-.544.224H661.3q.048 1.536.416 2.672.384 1.136 1.056 1.904.672.752 1.6 1.136.928.368 2.08.368 1.072 0 1.84-.24.784-.256 1.344-.544.56-.288.928-.528.384-.256.656-.256.352 0 .544.272z" transform="matrix(.75 0 0 .75 134.865 450.217)"/><path style="font-style:normal;font-weight:400;font-size:32px;line-height:1;font-family:Lato;font-variant-ligatures:none;text-align:center;text-anchor:middle" d="M679.231-23.568V0h-2.848v-23.568z" transform="matrix(.75 0 0 .75 135.615 450.217)"/><path style="font-style:normal;font-weight:400;font-size:32px;line-height:1;font-family:Lato;font-variant-ligatures:none;text-align:center;text-anchor:middle" d="M690.682-16.464q1.776 0 3.2.592 1.424.592 2.432 1.68t1.536 2.64q.544 1.536.544 3.44 0 1.92-.544 3.456-.528 1.536-1.536 2.624t-2.432 1.68q-1.424.576-3.2.576-1.792 0-3.232-.576-1.424-.592-2.432-1.68t-1.552-2.624q-.528-1.536-.528-3.456 0-1.904.528-3.44.544-1.552 1.552-2.64t2.432-1.68q1.44-.592 3.232-.592zm0 14.464q2.4 0 3.584-1.6 1.184-1.616 1.184-4.496 0-2.896-1.184-4.512-1.184-1.616-3.584-1.616-1.216 0-2.128.416-.896.416-1.504 1.2-.592.784-.896 1.936-.288 1.136-.288 2.576 0 2.88 1.184 4.496 1.2 1.6 3.632 1.6z" transform="matrix(.75 0 0 .75 136.365 450.217)"/><path style="font-style:normal;font-weight:400;font-size:32px;line-height:1;font-family:Lato;font-variant-ligatures:none;text-align:center;text-anchor:middle" d="M704.839-3.904q.784 1.056 1.712 1.488.928.432 2.08.432 2.272 0 3.488-1.616 1.216-1.616 1.216-4.608 0-1.584-.288-2.72-.272-1.136-.8-1.856-.528-.736-1.296-1.072-.768-.336-1.744-.336-1.392 0-2.448.64-1.04.64-1.92 1.808zm-.144-9.792q1.024-1.264 2.368-2.032 1.344-.768 3.072-.768 1.408 0 2.544.544 1.136.528 1.936 1.584.8 1.04 1.232 2.592.432 1.552.432 3.568 0 1.792-.48 3.344-.48 1.536-1.392 2.672-.896 1.12-2.208 1.776-1.296.64-2.928.64-1.488 0-2.56-.496-1.056-.512-1.872-1.408v7.168h-2.864v-21.696h1.712q.608 0 .752.592z" transform="matrix(.75 0 0 .75 137.115 450.217)"/><path style="font-style:normal;font-weight:400;font-size:32px;line-height:1;font-family:Lato;font-variant-ligatures:none;text-align:center;text-anchor:middle" d="M719.912 0v-16.208h1.712q.608 0 .752.592l.208 1.664q.896-1.104 2.016-1.808t2.592-.704q1.632 0 2.64.912 1.024.912 1.472 2.464.352-.88.896-1.52.56-.64 1.248-1.056.688-.416 1.456-.608.784-.192 1.584-.192 1.28 0 2.272.416 1.008.4 1.696 1.184.704.784 1.072 1.936.368 1.136.368 2.608V0h-2.864v-10.32q0-1.904-.832-2.88-.832-.992-2.4-.992-.704 0-1.344.256-.624.24-1.104.72-.48.48-.768 1.216-.272.72-.272 1.68V0h-2.864v-10.32q0-1.952-.784-2.912t-2.288-.96q-1.056 0-1.952.576-.896.56-1.648 1.536V0z" transform="matrix(.75 0 0 .75 137.865 450.217)"/><path style="font-style:normal;font-weight:400;font-size:32px;line-height:1;font-family:Lato;font-variant-ligatures:none;text-align:center;text-anchor:middle" d="M757.073-9.872q0-.992-.288-1.808-.272-.832-.816-1.424-.528-.608-1.296-.928-.768-.336-1.744-.336-2.048 0-3.248 1.2-1.184 1.184-1.472 3.296zm2.304 7.6q-.528.64-1.264 1.12-.736.464-1.584.768-.832.304-1.728.448-.896.16-1.776.16-1.68 0-3.104-.56-1.408-.576-2.448-1.664-1.024-1.104-1.6-2.72-.576-1.616-.576-3.712 0-1.696.512-3.168.528-1.472 1.504-2.544.976-1.088 2.384-1.696 1.408-.624 3.168-.624 1.456 0 2.688.496 1.248.48 2.144 1.408.912.912 1.424 2.272.512 1.344.512 3.072 0 .672-.144.896-.144.224-.544.224h-10.832q.048 1.536.416 2.672.384 1.136 1.056 1.904.672.752 1.6 1.136.928.368 2.08.368 1.072 0 1.84-.24.784-.256 1.344-.544.56-.288.928-.528.384-.256.656-.256.352 0 .544.272z" transform="matrix(.75 0 0 .75 138.615 450.217)"/><path style="font-style:normal;font-weight:400;font-size:32px;line-height:1;font-family:Lato;font-variant-ligatures:none;text-align:center;text-anchor:middle" d="M765.788-13.856q.528-.592 1.12-1.072.592-.48 1.248-.816.672-.352 1.408-.528.752-.192 1.616-.192 1.328 0 2.336.448 1.024.432 1.696 1.248.688.8 1.04 1.936.352 1.136.352 2.512V0h-2.864v-10.32q0-1.84-.848-2.848-.832-1.024-2.544-1.024-1.264 0-2.368.608-1.088.608-2.016 1.648V0H763.1v-16.208h1.712q.608 0 .752.592z" transform="matrix(.75 0 0 .75 139.365 450.217)"/><path style="font-style:normal;font-weight:400;font-size:32px;line-height:1;font-family:Lato;font-variant-ligatures:none;text-align:center;text-anchor:middle" d="M785.7.256q-1.92 0-2.96-1.072-1.023-1.072-1.023-3.088v-9.92h-1.952q-.256 0-.432-.144-.176-.16-.176-.48v-1.136l2.656-.336.656-5.008q.048-.24.208-.384.176-.16.448-.16h1.44v5.584h4.688v2.064h-4.688v9.728q0 1.024.496 1.52t1.28.496q.448 0 .768-.112.336-.128.576-.272.24-.144.4-.256.176-.128.304-.128.224 0 .4.272l.832 1.36q-.736.688-1.776 1.088-1.04.384-2.144.384z" transform="matrix(.75 0 0 .75 140.115 450.217)"/></g><g style="font-style:normal;font-weight:700;font-size:72px;line-height:1;font-family:Jura;font-variant-ligatures:none;text-align:center;text-anchor:middle"><path style="font-style:normal;font-weight:700;font-size:72px;line-height:1;font-family:Jura;font-variant-ligatures:none;text-align:center;text-anchor:middle" d="M416.115 0q-8.28 0-12.24-3.888-3.888-3.96-3.888-12.24v-16.56q0-8.28 3.888-12.24 3.96-3.96 12.168-3.888h8.712q6.768 0 10.296 2.808 3.6 2.808 4.176 8.784.216 1.512-.576 2.304-.792.792-2.304.792-1.44 0-2.232-.72-.72-.792-.936-2.304-.36-3.24-2.232-4.392-1.872-1.224-6.192-1.224h-8.712q-3.888-.072-6.048.864-2.16.936-3.096 3.096-.864 2.16-.864 6.12v16.56q0 3.96.936 6.12.936 2.088 3.024 3.024 2.16.936 6.12.936h8.64q3.456 0 5.256-.72 1.872-.792 2.592-2.592.792-1.872.792-5.328v-3.384l-5.616-.072q-3.024 0-3.024-3.024 0-1.44.792-2.232.792-.792 2.232-.792l8.64.072q1.44 0 2.232.792.792.792.792 2.232v6.408q0 7.632-3.6 11.16Q432.315 0 424.755 0z" fill="#420077" transform="matrix(2 0 0 2 -541.803 411.301)"/><path style="font-style:normal;font-weight:700;font-size:72px;line-height:1;font-family:Jura;font-variant-ligatures:none;text-align:center;text-anchor:middle" d="M471.79-48.816q6.624 0 10.08 3.528 3.528 3.456 3.528 10.08v2.16q0 6.552-3.528 10.08-3.456 3.528-10.08 3.528h-13.824v16.416q0 1.44-.792 2.232-.792.792-2.232.792-1.44 0-2.232-.792-.792-.792-.792-2.232v-42.768q0-1.44.792-2.232.792-.792 2.232-.792zm7.56 13.608q0-4.032-1.728-5.76-1.728-1.8-5.832-1.8h-13.824v17.28h13.824q4.104 0 5.832-1.728 1.728-1.728 1.728-5.832z" fill="#6d0077" transform="matrix(2 0 0 2 -527.803 411.301)"/><path style="font-style:normal;font-weight:700;font-size:72px;line-height:1;font-family:Jura;font-variant-ligatures:none;text-align:center;text-anchor:middle" d="M529.554-33.048q0 5.688-2.664 9.144-2.664 3.456-7.704 4.248l9.432 15.696q.432.72.432 1.584 0 1.584-1.584 2.52-.936.576-1.656.576-1.44 0-2.448-1.584L512.418-19.08l-.216-.36h-10.08v16.416q0 1.44-.792 2.232-.792.792-2.232.792-1.44 0-2.232-.792-.792-.792-.792-2.232v-42.768q0-1.44.792-2.232.792-.792 2.232-.792h16.848q6.624 0 10.08 3.528 3.528 3.456 3.528 10.08zm-6.048-2.16q0-4.032-1.728-5.76-1.728-1.8-5.832-1.8h-13.824v17.28h13.824q4.104 0 5.832-1.728 1.728-1.728 1.728-5.832z" fill="#980077" transform="matrix(2 0 0 2 -513.803 411.301)"/><path style="font-style:normal;font-weight:700;font-size:72px;line-height:1;font-family:Jura;font-variant-ligatures:none;text-align:center;text-anchor:middle" d="M555.474 0q-8.28 0-12.24-3.888-3.888-3.96-3.888-12.24V-32.76q0-8.28 3.96-12.168 3.96-3.96 12.168-3.888h8.64q8.28 0 12.168 3.96 3.96 3.888 3.96 12.168v16.56q0 8.28-3.96 12.24Q572.394 0 564.114 0zm8.64-6.048q3.96 0 6.048-.936 2.16-.936 3.096-3.024.936-2.16.936-6.12v-16.56q0-3.888-.936-6.048t-3.096-3.096q-2.16-.936-6.048-.936h-8.64q-3.888-.072-6.048.864-2.16.936-3.096 3.096-.936 2.16-.936 6.048v16.632q0 3.96.936 6.12.936 2.088 3.024 3.024 2.16.936 6.12.936z" fill="#c30077" transform="matrix(2 0 0 2 -499.803 411.301)"/><path style="font-style:normal;font-weight:700;font-size:72px;line-height:1;font-family:Jura;font-variant-ligatures:none;text-align:center;text-anchor:middle" d="M590.825-.648q-1.368-.936-1.368-2.304 0-1.008.648-1.944l13.176-19.44-13.896-19.584q-.648-1.008-.648-1.8 0-1.368 1.44-2.448 1.008-.648 1.872-.648 1.296 0 2.304 1.44l12.888 18.072 12.96-18.072q1.08-1.44 2.304-1.44.864 0 1.872.792 1.44 1.008 1.44 2.304 0 .936-.72 1.872L610.913-24.12 624.52-4.968q.648.936.648 1.872 0 1.44-1.44 2.448-.936.648-1.872.648-1.296 0-2.304-1.44l-12.528-17.64-11.952 17.712Q594.137 0 592.769 0q-.864 0-1.944-.648z" fill="#e07" transform="matrix(2 0 0 2 -485.803 411.301)"/></g></svg>
