<svg height="228.198" width="596.938" xmlns:xlink="http://www.w3.org/1999/xlink" xmlns="http://www.w3.org/2000/svg"><defs><linearGradient id="a"><stop style="stop-color:#420077;stop-opacity:1" offset="0"/><stop style="stop-color:#e07;stop-opacity:1" offset="1"/></linearGradient><linearGradient xlink:href="#a" id="b" x1="228.151" y1="576.199" x2="747.312" y2="575.035" gradientUnits="userSpaceOnUse" gradientTransform="translate(22.657 -212.005)"/><path id="c" d="M213.019 690.274h564.558v43.069H213.019z"/></defs><g style="font-style:normal;font-weight:700;font-size:72px;line-height:1;font-family:Jura;font-variant-ligatures:none;text-align:center;text-anchor:middle"><g style="font-weight:400;font-size:192px;line-height:1.25;font-family:sans-serif;letter-spacing:10px;fill:url(#b)"><path d="M305.96 355.732q4.687 0 4.687 4.687v60.563q0 3.937-3.563 5.625-13.5 5.812-26.437 5.812-12.375 0-23.25-5.625-10.688-5.625-17.625-18.937-6.938-13.5-6.938-35.438v-15q0-21.937 6.938-35.25 6.937-13.5 17.625-19.125 10.875-5.625 23.25-5.625 12.562 0 25.875 5.625 3 1.125 3 3.938 0 1.125-.563 2.25l-1.875 4.5q-1.125 3-3.937 3-1.313 0-2.063-.375-11.812-4.313-20.812-4.313-13.313 0-22.313 10.125-9 10.125-9 35.25v15q0 25.125 9 35.25t22.313 10.125q6.375 0 14.437-2.25V370.17h-13.5q-4.687 0-4.687-4.687v-4.875q0-4.875 4.687-4.875zm74.874-56.438q16.313 0 27.75 5.625 11.625 5.625 17.438 15 5.812 9.375 5.812 20.625 0 11.438-5.812 20.813-5.813 9.375-17.438 15-11.437 5.437-27.75 5.437h-14.062v44.063q0 4.687-4.688 4.687h-6.562q-4.688 0-4.688-4.687V303.982q0-4.688 4.688-4.688zm0 68.25q17.063 0 26.063-7.687 9-7.875 9-19.313 0-11.437-9.188-19.125-9-7.875-25.875-7.875h-14.062v54zM556.21 424.92q.75 1.312.75 2.624 0 3-4.126 3h-7.875q-3.75 0-5.437-3.375l-27.563-55.125h-27.187v53.813q0 4.687-4.688 4.687h-6.562q-4.688 0-4.688-4.687V303.982q0-4.688 4.688-4.688h29.625q13.875 0 23.625 4.875 9.937 4.688 14.812 12.938 5.063 8.25 5.063 18.562 0 10.313-5.063 18.938-5.062 8.625-14.062 13.125zm-53.063-67.313q13.312 0 20.437-6.375 7.125-6.563 7.125-15.563 0-5.812-3.187-10.875-3-5.062-9.375-8.062-6.188-3.188-15-3.188h-18.375v44.063zm121.75-60.187q17.062 0 27.375 12.374 10.5 12.375 10.5 35.063v40.125q0 22.687-10.5 35.062-10.313 12.375-27.375 12.375-17.063 0-27.563-12.187-10.5-12.375-10.5-35.25v-40.125q0-22.875 10.5-35.063 10.5-12.375 27.563-12.375zm0 120.75q9.375 0 15.562-8.813 6.375-9 6.375-24.375v-40.125q0-15.375-6.375-24.188-6.187-9-15.562-9-9.563 0-15.938 9-6.187 9-6.187 24.188v40.125q0 15.187 6.187 24.187 6.375 9 15.938 9zm137.687-60.75q-2.062 4.124-7.125 6.187 2.25.75 4.125 2.437 2.063 1.688 3 3.563l26.625 55.312q.563 1.313.563 2.438 0 3.187-3.938 3.187h-5.812q-3.938 0-5.625-3.375l-25.875-51.937q-2.813-5.625-5.625-5.625-3 0-5.625 5.625l-26.063 51.937q-1.687 3.375-5.437 3.375h-5.813q-1.875 0-3-.75-1.125-.937-1.125-2.437 0-1.125.563-2.438l26.812-55.312q.938-1.875 2.813-3.563 1.875-1.687 4.125-2.437-5.25-2.25-6.938-6.188l-25.5-52.687q-.562-1.5-.562-2.438 0-3 4.125-3h5.812q3.938 0 5.438 3.375l24.75 49.313q2.625 5.437 5.625 5.437t5.625-5.437l24.562-49.313q1.5-3.375 5.625-3.375h5.813q4.125 0 4.125 3 0 1.125-.75 2.438z" style="font-family:'mononoki Nerd Font';-inkscape-font-specification:'mononoki Nerd Font, Normal'" aria-label="GPROX" transform="translate(-212.834 -277.42)"/></g></g><g style="font-size:21.3333px;line-height:1.25;white-space:pre;shape-inside:url(#c);fill:#460077"><path d="M220.905 708.42q-1.844 1.697-3.552 1.697-1.406 0-2.333-.875-.928-.885-.928-2.229 0-1.854 1.553-2.844 1.562-1 4.468-1h.49v-1.364q0-1.969-2.021-1.969-1.625 0-3.51 1v-1.698q2.073-.844 3.885-.844 1.896 0 2.792.855.906.854.906 2.656v5.125q0 1.76 1.083 1.76.136 0 .396-.042l.146 1.136q-.698.333-1.542.333-1.437 0-1.833-1.698zm-.302-1.115v-2.927l-.688-.021q-1.687 0-2.729.646-1.041.635-1.041 1.677 0 .74.52 1.25.521.51 1.271.51 1.281 0 2.667-1.135zm16.01 2.812q-1.406 0-3.416-.656v-1.885q2.01 1 3.5 1 .885 0 1.468-.48.584-.479.584-1.197 0-1.053-1.636-1.74l-1.198-.51q-2.656-1.105-2.656-3.178 0-1.479 1.042-2.322 1.052-.855 2.875-.855.948 0 2.343.26l.428.084v1.708q-1.72-.51-2.73-.51-1.979 0-1.979 1.437 0 .928 1.5 1.563l.99.417q1.677.708 2.375 1.5.698.78.698 1.958 0 1.49-1.177 2.448t-3.01.958zm7.875-.26v-11.313h2.052v11.313zm0-13.365v-2.052h2.052v2.052zm6.167 13.365v-11.313h2.052v2.125q1.5-2.375 3.854-2.375 2.271 0 3.094 2.375 1.458-2.385 3.792-2.385 1.5 0 2.322.885.823.875.823 2.459v8.229h-2.062v-7.906q0-1.938-1.531-1.938-1.594 0-3.344 2.26v7.584h-2.063v-7.906q0-1.948-1.562-1.948-1.552 0-3.323 2.27v7.584zm19.917 4.114v-15.427h2.052v2.125q1.26-2.375 3.78-2.375 2.043 0 3.21 1.49 1.176 1.49 1.176 4.073 0 2.812-1.333 4.542-1.323 1.718-3.49 1.718-2.01 0-3.343-1.541v5.395zm2.052-6.812q1.583 1.417 3.02 1.417 2.959 0 2.959-4.51 0-3.98-2.625-3.98-1.719 0-3.354 1.865zm11.364 2.698v-16.448h2.052v16.448zm14.458-.365q-2.062.625-3.53.625-2.5 0-4.084-1.656-1.573-1.667-1.573-4.312 0-2.573 1.385-4.22 1.396-1.645 3.563-1.645 2.052 0 3.167 1.458 1.125 1.459 1.125 4.146l-.01.636h-7.136q.448 4.03 3.948 4.03 1.28 0 3.145-.687zm-7-6.51h4.99q0-3.156-2.354-3.156-2.365 0-2.636 3.156zm20.334 7.135q-1.406 0-3.417-.656v-1.885q2.01 1 3.5 1 .886 0 1.469-.48.583-.479.583-1.197 0-1.053-1.635-1.74l-1.198-.51q-2.656-1.105-2.656-3.178 0-1.479 1.041-2.322 1.052-.855 2.875-.855.948 0 2.344.26l.427.084v1.708q-1.719-.51-2.729-.51-1.98 0-1.98 1.437 0 .928 1.5 1.563l.99.417q1.677.708 2.375 1.5.698.78.698 1.958 0 1.49-1.177 2.448t-3.01.958zm10.875 0q-1.406 0-3.417-.656v-1.885q2.01 1 3.5 1 .886 0 1.469-.48.583-.479.583-1.197 0-1.053-1.635-1.74l-1.198-.51q-2.656-1.105-2.656-3.178 0-1.479 1.041-2.322 1.052-.855 2.875-.855.948 0 2.344.26l.427.084v1.708q-1.719-.51-2.73-.51-1.978 0-1.978 1.437 0 .928 1.5 1.563l.99.417q1.676.708 2.374 1.5.698.78.698 1.958 0 1.49-1.177 2.448t-3.01.958zm7.875-.26v-16.448h2.052v16.448zm12.916 4.114v-15.427h2.052v2.125q1.26-2.375 3.782-2.375 2.041 0 3.208 1.49 1.177 1.49 1.177 4.073 0 2.812-1.333 4.542-1.323 1.718-3.49 1.718-2.01 0-3.344-1.541v5.395zm2.052-6.812q1.584 1.417 3.021 1.417 2.959 0 2.959-4.51 0-3.98-2.625-3.98-1.72 0-3.355 1.865zm11.365 2.698v-11.313h2.052v2.125q1.219-2.375 3.542-2.375.312 0 .656.052v1.917q-.531-.177-.937-.177-1.948 0-3.26 2.313v7.458zm13.177.26q-2.427 0-3.875-1.604-1.448-1.614-1.448-4.312 0-2.73 1.448-4.313 1.458-1.594 3.948-1.594t3.938 1.594q1.458 1.583 1.458 4.292 0 2.77-1.458 4.354-1.459 1.583-4.01 1.583zm.031-1.541q3.26 0 3.26-4.396 0-4.344-3.218-4.344-3.208 0-3.208 4.365 0 4.375 3.166 4.375zm7.532 1.281 4.302-5.844-4.177-5.469h2.437l3.302 4.355 2.99-4.355h2l-3.917 5.74 4.26 5.573h-2.437l-3.406-4.48-3.292 4.48zm14.875 4.114 1.833-4.114-4.375-11.313h2.219l3.24 8.521 3.458-8.52h1.937l-6.177 15.426zm19.708-13.885v9.77h-2.063v-9.77h-1.604v-1.542h1.604v-1.354q0-4.041 3.688-4.041 1.031 0 2.344.343v1.625q-1.386-.427-2.22-.427-1.01 0-1.385.49-.364.479-.364 1.791v1.573h2.823v1.542zm9.812 10.031q-2.427 0-3.875-1.604-1.448-1.614-1.448-4.312 0-2.73 1.448-4.313 1.459-1.594 3.948-1.594 2.49 0 3.938 1.594 1.458 1.583 1.458 4.292 0 2.77-1.458 4.354-1.459 1.583-4.01 1.583zm.032-1.541q3.26 0 3.26-4.396 0-4.344-3.219-4.344-3.208 0-3.208 4.365 0 4.375 3.167 4.375zm8.666 1.281v-11.313h2.052v2.125q1.22-2.375 3.542-2.375.313 0 .656.052v1.917q-.531-.177-.937-.177-1.948 0-3.26 2.313v7.458zm15.5 0v-16.448h2.052v16.448zm10.594.26q-2.427 0-3.875-1.604-1.448-1.614-1.448-4.312 0-2.73 1.448-4.313 1.458-1.594 3.948-1.594t3.937 1.594q1.459 1.583 1.459 4.292 0 2.77-1.459 4.354-1.458 1.583-4.01 1.583zm.031-1.541q3.26 0 3.26-4.396 0-4.344-3.218-4.344-3.208 0-3.208 4.365 0 4.375 3.166 4.375zm13.084 1.541q-2.292 0-3.803-1.698-1.51-1.698-1.51-4.28 0-2.761 1.49-4.303 1.5-1.542 4.177-1.542 1.323 0 2.958.365v1.719q-1.74-.51-2.833-.51-1.573 0-2.532 1.187-.947 1.177-.947 3.146 0 1.906.979 3.083.979 1.177 2.562 1.177 1.406 0 2.896-.719v1.771q-1.99.604-3.437.604zm12.333-1.697q-1.844 1.697-3.552 1.697-1.406 0-2.334-.875-.927-.885-.927-2.229 0-1.854 1.552-2.844 1.563-1 4.47-1h.489v-1.364q0-1.969-2.021-1.969-1.625 0-3.51 1v-1.698q2.072-.844 3.885-.844 1.896 0 2.792.855.906.854.906 2.656v5.125q0 1.76 1.083 1.76.136 0 .396-.042l.146 1.136q-.698.333-1.542.333-1.437 0-1.833-1.698zm-.302-1.115v-2.927l-.688-.021q-1.687 0-2.729.646-1.042.635-1.042 1.677 0 .74.521 1.25t1.271.51q1.281 0 2.667-1.135zm6.26 2.552v-16.448h2.052v16.448zm20.177 0v-2.125q-1.25 2.385-3.77 2.385-2.042 0-3.22-1.49-1.166-1.489-1.166-4.072 0-2.823 1.323-4.542 1.333-1.719 3.5-1.719 2.01 0 3.333 1.542v-6.427h2.063v16.448zm0-8.615q-1.594-1.406-3.02-1.406-2.948 0-2.948 4.51 0 3.97 2.625 3.97 1.708 0 3.343-1.865zm14.448 8.25q-2.062.625-3.531.625-2.5 0-4.083-1.656-1.573-1.667-1.573-4.312 0-2.573 1.385-4.22 1.396-1.645 3.563-1.645 2.052 0 3.166 1.458 1.125 1.459 1.125 4.146l-.01.636h-7.136q.448 4.03 3.948 4.03 1.282 0 3.146-.687zm-7-6.51h4.99q0-3.156-2.354-3.156-2.365 0-2.636 3.156zm12.927 6.875-4.208-11.313h2.052l3.292 8.802 3.468-8.802h1.917l-4.469 11.313zm16.99-.365q-2.063.625-3.532.625-2.5 0-4.083-1.656-1.573-1.667-1.573-4.312 0-2.573 1.386-4.22 1.396-1.645 3.562-1.645 2.052 0 3.167 1.458 1.125 1.459 1.125 4.146l-.01.636h-7.136q.448 4.03 3.948 4.03 1.281 0 3.146-.687zm-7-6.51h4.99q0-3.156-2.355-3.156-2.364 0-2.635 3.156zm10.583 6.875v-16.448h2.052v16.448zm10.594.26q-2.427 0-3.875-1.604-1.448-1.614-1.448-4.312 0-2.73 1.448-4.313 1.458-1.594 3.948-1.594t3.937 1.594q1.459 1.583 1.459 4.292 0 2.77-1.459 4.354-1.458 1.583-4.01 1.583zm.031-1.541q3.26 0 3.26-4.396 0-4.344-3.218-4.344-3.209 0-3.209 4.365 0 4.375 3.167 4.375zm8.667 5.395v-15.427h2.052v2.125q1.26-2.375 3.781-2.375 2.042 0 3.208 1.49 1.177 1.49 1.177 4.073 0 2.812-1.333 4.542-1.323 1.718-3.49 1.718-2.01 0-3.343-1.541v5.395zm2.052-6.812q1.583 1.417 3.02 1.417 2.959 0 2.959-4.51 0-3.98-2.625-3.98-1.719 0-3.354 1.865zm11.365 2.698v-11.313h2.051v2.125q1.5-2.375 3.855-2.375 2.27 0 3.093 2.375 1.459-2.385 3.792-2.385 1.5 0 2.323.885.823.875.823 2.459v8.229h-2.063v-7.906q0-1.938-1.53-1.938-1.595 0-3.345 2.26v7.584h-2.062v-7.906q0-1.948-1.563-1.948-1.552 0-3.323 2.27v7.584zm28.208-.365q-2.063.625-3.532.625-2.5 0-4.083-1.656-1.573-1.667-1.573-4.312 0-2.573 1.386-4.22 1.395-1.645 3.562-1.645 2.052 0 3.167 1.458 1.125 1.459 1.125 4.146l-.01.636h-7.136q.448 4.03 3.948 4.03 1.281 0 3.146-.687zm-7-6.51h4.99q0-3.156-2.355-3.156-2.365 0-2.635 3.156zm10.583 6.875v-11.313h2.052v2.125q1.625-2.375 3.98-2.375 1.468 0 2.343.938.875.927.875 2.5v8.125h-2.052v-7.458q0-1.26-.375-1.792-.365-.542-1.219-.542-1.885 0-3.552 2.469v7.323zm16.646.26q-1.563 0-2.438-.896-.875-.895-.875-2.49v-6.645h-1.416v-1.542h1.416v-2.052l2.052-.198v2.25h2.959v1.542h-2.959v6.27q0 2.22 1.917 2.22.406 0 .99-.136v1.417q-.948.26-1.646.26z" style="font-family:'Lucida Grande';-inkscape-font-specification:'Lucida Grande'" aria-label="a simple ssl proxy for local development" transform="translate(-124.66 -505.773)"/></g></svg>
